<svg xmlns="http://www.w3.org/2000/svg" viewBox="0 0 1200 630" width="1200" height="630">
  <defs>
    <linearGradient id="bg" x1="0" y1="0" x2="0" y2="1">
      <stop offset="0" stop-color="#FFF8EA"/>
      <stop offset="1" stop-color="#FCEFCC"/>
    </linearGradient>
    <radialGradient id="halo" cx="0.5" cy="0.5" r="0.5">
      <stop offset="0" stop-color="#FCC93C" stop-opacity="0.55"/>
      <stop offset="1" stop-color="#FCC93C" stop-opacity="0"/>
    </radialGradient>
  </defs>
  <rect width="1200" height="630" fill="url(#bg)"/>
  <circle cx="980" cy="160" r="280" fill="url(#halo)"/>
  <circle cx="180" cy="520" r="260" fill="url(#halo)" opacity="0.6"/>

  <!-- Brand mark + word -->
  <g transform="translate(80,72)">
    <rect width="56" height="56" rx="14" fill="#1A1929"/>
    <g transform="translate(8,8) scale(1.667)">
      <path d="M9 4h6c0 1.5-.8 2.5-2.2 2.5H12v3l3 3.8c.9 1.1.9 2.7 0 3.8l-1.1 1.4c-1.4 1.8-4.4 1.8-5.8 0L7 17.1c-.9-1.1-.9-2.7 0-3.8L10 9.5v-3h-.8C7.8 6.5 7 5.5 7 4z" fill="#FCC93C"/>
    </g>
    <text x="76" y="38" font-family="Fraunces, Georgia, serif" font-size="38" font-weight="700" fill="#1A1929" letter-spacing="-1">Strum</text>
  </g>

  <!-- Eyebrow pill -->
  <g transform="translate(80,170)">
    <rect width="480" height="42" rx="21" fill="#FEF4C7" stroke="#FCC93C" stroke-width="1.5"/>
    <circle cx="22" cy="21" r="5" fill="#FCC93C"/>
    <text x="38" y="28" font-family="Inter, sans-serif" font-size="13" font-weight="700" letter-spacing="2.2" fill="#B8862B">FOR KIDS AND GROWN-UPS STARTING AT ZERO</text>
  </g>

  <!-- Headline line 1 -->
  <text x="80" y="356" font-family="Fraunces, Georgia, serif" font-size="108" font-weight="600" fill="#1A1929" letter-spacing="-4.5">Learn guitar</text>

  <!-- Yellow highlight bar under italic line -->
  <rect x="76" y="392" width="694" height="56" fill="#FCC93C" rx="2"/>

  <!-- Headline line 2 (italic) — only rendered once, on top of the highlight -->
  <text x="80" y="438" font-family="Fraunces, Georgia, serif" font-size="108" font-weight="500" font-style="italic" fill="#2E2D40" letter-spacing="-4.5">from scratch.</text>

  <!-- Subhead -->
  <text x="80" y="510" font-family="Inter, sans-serif" font-size="22" font-weight="500" fill="#7C7282">
    Mic tuner · 7 chords · 15 lessons · real songs · free in your browser
  </text>

  <!-- URL -->
  <text x="1120" y="582" text-anchor="end" font-family="Inter, sans-serif" font-size="16" font-weight="600" fill="#B8AFA2">jeremiahdaws.com/strum</text>
</svg>
